<svg xmlns="http://www.w3.org/2000/svg" width="565.492" height="613.558" viewBox="0 0 565.492 613.558">
  <g id="blob-shape_4_" data-name="blob-shape (4)" transform="translate(131.7 187.84)">
    <path id="Pfad_2053" data-name="Pfad 2053" d="M351.869-181.769c59.652,23.12,82.948,116.127,81.889,197.311-1.235,81.007-27,150.189-46.945,223.96-19.943,73.947-34.238,152.483-81.007,177.015s-125.834-4.942-186.545-30.532C58.55,360.57,16.37,339.215-23.163,312.39c-39.356-27-76.065-59.476-94.42-101.3s-18.354-93.008-2.647-138.541c15.884-45.357,47.3-84.889,86.831-114.539C5.957-71.466,53.432-90.879,124.908-124.235,196.561-157.591,292.217-204.712,351.869-181.769Z" transform="translate(0 0)" fill="#f2f0e5"/>
  </g>
</svg>
