<svg xmlns="http://www.w3.org/2000/svg" width="650" height="522" viewBox="0 0 650 522">
  <g id="blob-shape-4" data-name="blob-shape-4" transform="translate(131.699 187.84)">
    <path id="Pfad_2053" data-name="Pfad 2053" d="M424.135-182.675c68.567,19.67,95.344,98.8,94.127,167.867-1.42,68.919-31.038,127.777-53.961,190.539-22.923,62.913-39.355,129.729-93.113,150.6s-144.639-4.2-214.423-25.976C86.982,278.734,38.5,260.566-6.943,237.743c-45.238-22.973-87.433-50.6-108.53-86.186s-21.1-79.129-3.043-117.867C-100.258-4.9-64.149-38.532-18.709-63.757c45.238-25.075,99.807-41.591,181.965-69.97C245.618-162.1,355.568-202.194,424.135-182.675Z" transform="translate(0 0)" fill="#f2f0e5"/>
  </g>
</svg>
