<svg xmlns="http://www.w3.org/2000/svg" width="210.125" height="210.126" viewBox="0 0 210.125 210.126">
  <g id="Gruppe_2389" data-name="Gruppe 2389" transform="translate(-768.725 -263.003)">
    <ellipse id="Ellipse_83" data-name="Ellipse 83" cx="105.063" cy="105.063" rx="105.063" ry="105.063" transform="translate(768.725 263.003)" fill="#9cd08e" opacity="0.482"/>
    <g id="Gruppe_582" data-name="Gruppe 582" transform="translate(791.137 293.13)">
      <g id="Gruppe_584" data-name="Gruppe 584" transform="translate(0)">
        <path id="Pfad_631" data-name="Pfad 631" d="M468.193,194.939l1.242-6.226c1.17-5.86,5.992-8.624,11.041-7.617s8.441,5.411,7.272,11.271l-1.243,6.226Zm17.984-2.75c1-5.022-1.913-8.542-6.046-9.367-4.108-.819-8.177,1.307-9.179,6.329l-.882,4.421L485.3,196.61Z" transform="translate(-468.193 -122.335)" fill="#262626"/>
        <path id="Pfad_632" data-name="Pfad 632" d="M492.217,159.035l-3.141,6.483-1.368-.663,4.4-9.075,6.481,11.708,3.386-6.986,1.344.651-4.642,9.579Z" transform="translate(-476.139 -112.109)" fill="#262626"/>
        <path id="Pfad_633" data-name="Pfad 633" d="M505.593,145.832c-2.822-2.237-3.61-5.925-1.339-8.789a5.491,5.491,0,0,1,5.256-2.164l-1.923-1.525.995-1.254,9.721,7.706-.994,1.254-1.923-1.524a5.421,5.421,0,0,1-.93,5.6C512.185,147.994,508.436,148.085,505.593,145.832Zm6.778-8.55c-2.132-1.69-4.954-1.782-6.776.518-1.79,2.258-1.09,5.025,1.042,6.715,2.174,1.724,5.007,1.756,6.8-.5C515.257,141.714,514.545,139.005,512.371,137.281Z" transform="translate(-482.338 -102.467)" fill="#262626"/>
        <path id="Pfad_634" data-name="Pfad 634" d="M522.665,118.991l1.208,1.561a4.611,4.611,0,0,1,1.966-4.389c2.511-1.943,5.471-1.3,7.4,1.189l4.441,5.738-1.266.98-4.359-5.632a3.859,3.859,0,1,0-6.1,4.718l4.359,5.632-1.266.98-7.608-9.83Z" transform="translate(-489.875 -95.515)" fill="#262626"/>
        <path id="Pfad_635" data-name="Pfad 635" d="M552.31,115.069l1.512-.671c.869,1.891,2.935,2.14,4.861,1.285a4.078,4.078,0,0,0,2.236-5.809l-1.007-2.267a5.238,5.238,0,0,1-3.269,4.4c-3.267,1.451-6.536-.191-7.975-3.434-1.419-3.194-.456-6.744,2.81-8.195a5.342,5.342,0,0,1,5.446.5l-.964-2.169,1.463-.65,4.851,10.921c1.537,3.462.467,6.506-2.995,8.043C556.524,118.247,553.523,117.8,552.31,115.069ZM558.3,104.3c-1.083-2.438-3.447-3.752-6.007-2.616-2.535,1.126-3.194,3.783-2.112,6.221s3.518,3.779,6.053,2.653S559.389,106.759,558.3,104.3Z" transform="translate(-500.701 -88.607)" fill="#262626"/>
        <path id="Pfad_636" data-name="Pfad 636" d="M576.115,99.326c-.6-3.551,1.28-6.82,4.883-7.43a5.492,5.492,0,0,1,5.357,1.906l-.411-2.42,1.579-.267,2.073,12.232-1.578.267-.41-2.42a5.42,5.42,0,0,1-4.433,3.539C579.571,105.343,576.721,102.9,576.115,99.326ZM586.874,97.5c-.455-2.683-2.491-4.638-5.385-4.147-2.841.482-4.171,3.007-3.717,5.69.464,2.736,2.548,4.655,5.389,4.174C586.055,102.729,587.338,100.237,586.874,97.5Z" transform="translate(-512.092 -85.779)" fill="#262626"/>
        <path id="Pfad_637" data-name="Pfad 637" d="M618.454,95.686l1.65-.387c.082,2.244,1.588,3.867,4.128,4.359,2.776.538,5.1-.643,5.543-2.947.441-2.278-.958-3.609-3.067-4.643l-1.763-.858c-2.476-1.241-4.019-2.816-3.512-5.435.548-2.828,3.345-4.08,6.147-3.537a5.378,5.378,0,0,1,4.581,4.257l-1.63.417a3.773,3.773,0,0,0-3.252-3.13c-1.885-.366-3.8.378-4.161,2.264-.35,1.807.786,2.815,2.6,3.709l1.737.852c2.833,1.365,4.592,3.362,4,6.4-.614,3.168-3.858,4.9-7.525,4.193C620.816,100.6,618.548,98.421,618.454,95.686Z" transform="translate(-529.376 -82.115)" fill="#262626"/>
        <path id="Pfad_638" data-name="Pfad 638" d="M646.81,104.987c1.529-3.261,4.937-4.874,8.245-3.322a5.491,5.491,0,0,1,3.314,4.619l1.042-2.222,1.449.679-5.266,11.231-1.449-.68,1.042-2.222a5.419,5.419,0,0,1-5.658.381C646.22,111.9,645.269,108.272,646.81,104.987Zm9.878,4.632c1.155-2.464.6-5.23-2.061-6.476-2.608-1.223-5.141.094-6.3,2.557-1.178,2.512-.559,5.277,2.049,6.5C653.037,113.447,655.51,112.132,656.688,109.62Z" transform="translate(-540.63 -89.833)" fill="#262626"/>
        <path id="Pfad_639" data-name="Pfad 639" d="M677.452,114.967l-1.244,1.534a4.609,4.609,0,0,1,4.724.911c2.467,2,2.517,5.03.534,7.475l-4.571,5.637-1.244-1.008,4.488-5.533a3.86,3.86,0,1,0-5.989-4.857l-4.487,5.533-1.244-1.008,7.832-9.658Z" transform="translate(-549.721 -95.095)" fill="#262626"/>
        <path id="Pfad_640" data-name="Pfad 640" d="M684.858,143.269l1,1.317c-1.64,1.28-1.409,3.349-.132,5.027a4.078,4.078,0,0,0,6.168.841l1.975-1.5a5.241,5.241,0,0,1-5.035-2.171c-2.163-2.846-1.317-6.4,1.508-8.553,2.782-2.115,6.459-2,8.623.851a5.342,5.342,0,0,1,.767,5.416l1.89-1.437.969,1.275-9.515,7.234c-3.016,2.293-6.225,1.951-8.518-1.065C682.734,148.1,682.479,145.077,684.858,143.269Zm11.863,3.349c2.124-1.615,2.859-4.218,1.164-6.449-1.679-2.209-4.417-2.238-6.541-.624s-2.869,4.293-1.19,6.5S694.576,148.248,696.721,146.618Z" transform="translate(-555.712 -104.371)" fill="#262626"/>
        <path id="Pfad_641" data-name="Pfad 641" d="M721.454,157.05l-8.295,3.6a4.7,4.7,0,0,1,3.782,2.953c1.264,2.911-.114,5.632-2.9,6.843l-6.729,2.92-.637-1.468,6.533-2.835a3.859,3.859,0,1,0-3.068-7.072l-6.534,2.835-.637-1.468,17.862-7.752Z" transform="translate(-563.788 -112.039)" fill="#262626"/>
        <path id="Pfad_642" data-name="Pfad 642" d="M718.629,188.971c3.553-.59,6.814,1.3,7.413,4.907a5.491,5.491,0,0,1-1.924,5.349l2.42-.4.262,1.579-12.236,2.032-.262-1.579,2.421-.4a5.419,5.419,0,0,1-3.523-4.444C712.6,192.406,715.05,189.565,718.629,188.971Zm1.787,10.763c2.684-.446,4.645-2.475,4.164-5.369-.472-2.842-2.993-4.181-5.676-3.735-2.737.454-4.663,2.532-4.192,5.374C715.193,198.9,717.679,200.188,720.416,199.734Z" transform="translate(-567.918 -125.581)" fill="#262626"/>
      </g>
    </g>
    <ellipse id="Ellipse_47" data-name="Ellipse 47" cx="46.535" cy="46.535" rx="46.535" ry="46.535" transform="translate(827.253 323.45)" fill="#9cd08e" opacity="0.482"/>
    <path id="Pfad_618" data-name="Pfad 618" d="M3977.05,418.5l-2.034-12.577-6.841-5.4-4.6-6.889,11.445-5.622,18.68,5.622,2.4,3.17s-2.159-.05-6.383,1.639-5.8-1.262-6.735,2.921.2,6.316-1.594,9.8-1.753,4.282-1.753,4.282Z" transform="translate(-3101.229 -33.847)" fill="#fff"/>
  </g>
</svg>
